<mxfile host="app.diagrams.net" agent="Mozilla/5.0 (Macintosh; Intel Mac OS X 10_15_7) AppleWebKit/537.36 (KHTML, like Gecko) Chrome/130.0.0.0 Safari/537.36" version="24.8.3">
  <diagram name="Page-1" id="I6vzEuglW76SGQMistby">
    <mxGraphModel dx="984" dy="659" grid="1" gridSize="10" guides="1" tooltips="1" connect="1" arrows="1" fold="1" page="1" pageScale="1" pageWidth="850" pageHeight="1100" math="0" shadow="0">
      <root>
        <mxCell id="0" />
        <mxCell id="1" parent="0" />
        <mxCell id="5" value="Presence of Aura" style="whiteSpace=wrap;strokeWidth=2;fillColor=#f8cecc;strokeColor=#b85450;" parent="1" vertex="1">
          <mxGeometry x="83" y="40" width="157" height="49" as="geometry" />
        </mxCell>
        <mxCell id="6" value="Seizure Days Pre-Treatment" style="whiteSpace=wrap;strokeWidth=2;fillColor=#d5e8d4;strokeColor=#82b366;" parent="1" vertex="1">
          <mxGeometry x="440" y="40" width="160" height="49" as="geometry" />
        </mxCell>
        <mxCell id="eZLIEWkoW6IjbnPwpge3-9" value="Seizure Days Pre-Treatment" style="whiteSpace=wrap;strokeWidth=2;fillColor=#dae8fc;strokeColor=#6c8ebf;" vertex="1" parent="1">
          <mxGeometry x="800" y="40" width="160" height="49" as="geometry" />
        </mxCell>
        <mxCell id="eZLIEWkoW6IjbnPwpge3-10" value="Class 1" style="ellipse;whiteSpace=wrap;html=1;aspect=fixed;fillColor=#e1d5e7;strokeColor=#9673a6;" vertex="1" parent="1">
          <mxGeometry x="80" y="400" width="80" height="80" as="geometry" />
        </mxCell>
        <mxCell id="eZLIEWkoW6IjbnPwpge3-12" value="Class 2" style="ellipse;whiteSpace=wrap;html=1;aspect=fixed;fillColor=#e1d5e7;strokeColor=#9673a6;" vertex="1" parent="1">
          <mxGeometry x="240" y="400" width="80" height="80" as="geometry" />
        </mxCell>
        <mxCell id="eZLIEWkoW6IjbnPwpge3-13" value="Class 3" style="ellipse;whiteSpace=wrap;html=1;aspect=fixed;fillColor=#e1d5e7;strokeColor=#9673a6;" vertex="1" parent="1">
          <mxGeometry x="400" y="400" width="80" height="80" as="geometry" />
        </mxCell>
        <mxCell id="eZLIEWkoW6IjbnPwpge3-14" value="Class 4" style="ellipse;whiteSpace=wrap;html=1;aspect=fixed;fillColor=#e1d5e7;strokeColor=#9673a6;" vertex="1" parent="1">
          <mxGeometry x="560" y="400" width="80" height="80" as="geometry" />
        </mxCell>
        <mxCell id="eZLIEWkoW6IjbnPwpge3-15" value="Class 5" style="ellipse;whiteSpace=wrap;html=1;aspect=fixed;fillColor=#e1d5e7;strokeColor=#9673a6;" vertex="1" parent="1">
          <mxGeometry x="720" y="400" width="80" height="80" as="geometry" />
        </mxCell>
        <mxCell id="eZLIEWkoW6IjbnPwpge3-16" value="Class 6" style="ellipse;whiteSpace=wrap;html=1;aspect=fixed;fillColor=#e1d5e7;strokeColor=#9673a6;" vertex="1" parent="1">
          <mxGeometry x="880" y="400" width="80" height="80" as="geometry" />
        </mxCell>
        <mxCell id="eZLIEWkoW6IjbnPwpge3-18" value="" style="endArrow=classic;html=1;rounded=0;entryX=0.5;entryY=0;entryDx=0;entryDy=0;fillColor=#e1d5e7;strokeColor=#9673a6;" edge="1" parent="1" target="eZLIEWkoW6IjbnPwpge3-10">
          <mxGeometry width="50" height="50" relative="1" as="geometry">
            <mxPoint x="120" y="240" as="sourcePoint" />
            <mxPoint x="500" y="240" as="targetPoint" />
          </mxGeometry>
        </mxCell>
        <mxCell id="eZLIEWkoW6IjbnPwpge3-19" value="" style="endArrow=classic;html=1;rounded=0;entryX=0.5;entryY=0;entryDx=0;entryDy=0;fillColor=#e1d5e7;strokeColor=#9673a6;" edge="1" parent="1">
          <mxGeometry width="50" height="50" relative="1" as="geometry">
            <mxPoint x="279.5" y="240" as="sourcePoint" />
            <mxPoint x="279.5" y="400" as="targetPoint" />
          </mxGeometry>
        </mxCell>
        <mxCell id="eZLIEWkoW6IjbnPwpge3-20" value="" style="endArrow=classic;html=1;rounded=0;entryX=0.5;entryY=0;entryDx=0;entryDy=0;fillColor=#e1d5e7;strokeColor=#9673a6;" edge="1" parent="1">
          <mxGeometry width="50" height="50" relative="1" as="geometry">
            <mxPoint x="440" y="240" as="sourcePoint" />
            <mxPoint x="440" y="400" as="targetPoint" />
          </mxGeometry>
        </mxCell>
        <mxCell id="eZLIEWkoW6IjbnPwpge3-21" value="" style="endArrow=classic;html=1;rounded=0;entryX=0.5;entryY=0;entryDx=0;entryDy=0;fillColor=#e1d5e7;strokeColor=#9673a6;" edge="1" parent="1">
          <mxGeometry width="50" height="50" relative="1" as="geometry">
            <mxPoint x="599.5" y="240" as="sourcePoint" />
            <mxPoint x="599.5" y="400" as="targetPoint" />
          </mxGeometry>
        </mxCell>
        <mxCell id="eZLIEWkoW6IjbnPwpge3-22" value="" style="endArrow=classic;html=1;rounded=0;entryX=0.5;entryY=0;entryDx=0;entryDy=0;fillColor=#e1d5e7;strokeColor=#9673a6;" edge="1" parent="1">
          <mxGeometry width="50" height="50" relative="1" as="geometry">
            <mxPoint x="759.5" y="240" as="sourcePoint" />
            <mxPoint x="759.5" y="400" as="targetPoint" />
          </mxGeometry>
        </mxCell>
        <mxCell id="eZLIEWkoW6IjbnPwpge3-23" value="" style="endArrow=classic;html=1;rounded=0;entryX=0.5;entryY=0;entryDx=0;entryDy=0;fillColor=#e1d5e7;strokeColor=#9673a6;" edge="1" parent="1">
          <mxGeometry width="50" height="50" relative="1" as="geometry">
            <mxPoint x="919.5" y="240" as="sourcePoint" />
            <mxPoint x="919.5" y="400" as="targetPoint" />
          </mxGeometry>
        </mxCell>
        <mxCell id="eZLIEWkoW6IjbnPwpge3-26" value="" style="endArrow=none;html=1;rounded=0;fillColor=#f8cecc;strokeColor=#b85450;" edge="1" parent="1">
          <mxGeometry width="50" height="50" relative="1" as="geometry">
            <mxPoint x="160" y="90" as="sourcePoint" />
            <mxPoint x="120" y="240" as="targetPoint" />
          </mxGeometry>
        </mxCell>
        <mxCell id="eZLIEWkoW6IjbnPwpge3-27" value="" style="endArrow=none;html=1;rounded=0;fillColor=#d5e8d4;strokeColor=#82b366;" edge="1" parent="1">
          <mxGeometry width="50" height="50" relative="1" as="geometry">
            <mxPoint x="520" y="90" as="sourcePoint" />
            <mxPoint x="120" y="240" as="targetPoint" />
          </mxGeometry>
        </mxCell>
        <mxCell id="eZLIEWkoW6IjbnPwpge3-28" value="" style="endArrow=none;html=1;rounded=0;fillColor=#dae8fc;strokeColor=#6c8ebf;" edge="1" parent="1">
          <mxGeometry width="50" height="50" relative="1" as="geometry">
            <mxPoint x="880" y="90" as="sourcePoint" />
            <mxPoint x="120" y="240" as="targetPoint" />
          </mxGeometry>
        </mxCell>
        <mxCell id="eZLIEWkoW6IjbnPwpge3-29" value="" style="endArrow=none;html=1;rounded=0;fillColor=#d5e8d4;strokeColor=#82b366;" edge="1" parent="1">
          <mxGeometry width="50" height="50" relative="1" as="geometry">
            <mxPoint x="520" y="90" as="sourcePoint" />
            <mxPoint x="280" y="240" as="targetPoint" />
          </mxGeometry>
        </mxCell>
        <mxCell id="eZLIEWkoW6IjbnPwpge3-30" value="" style="endArrow=none;html=1;rounded=0;exitX=0.5;exitY=1;exitDx=0;exitDy=0;fillColor=#dae8fc;strokeColor=#6c8ebf;" edge="1" parent="1" source="eZLIEWkoW6IjbnPwpge3-9">
          <mxGeometry width="50" height="50" relative="1" as="geometry">
            <mxPoint x="320" y="90" as="sourcePoint" />
            <mxPoint x="280" y="240" as="targetPoint" />
          </mxGeometry>
        </mxCell>
        <mxCell id="eZLIEWkoW6IjbnPwpge3-31" value="" style="endArrow=none;html=1;rounded=0;exitX=0.5;exitY=1;exitDx=0;exitDy=0;fillColor=#f8cecc;strokeColor=#b85450;" edge="1" parent="1" source="5">
          <mxGeometry width="50" height="50" relative="1" as="geometry">
            <mxPoint x="320" y="89" as="sourcePoint" />
            <mxPoint x="280" y="239" as="targetPoint" />
          </mxGeometry>
        </mxCell>
        <mxCell id="eZLIEWkoW6IjbnPwpge3-32" value="" style="endArrow=none;html=1;rounded=0;exitX=0.5;exitY=1;exitDx=0;exitDy=0;fillColor=#f8cecc;strokeColor=#b85450;" edge="1" parent="1" source="5">
          <mxGeometry width="50" height="50" relative="1" as="geometry">
            <mxPoint x="480" y="280" as="sourcePoint" />
            <mxPoint x="440" y="240" as="targetPoint" />
          </mxGeometry>
        </mxCell>
        <mxCell id="eZLIEWkoW6IjbnPwpge3-33" value="" style="endArrow=none;html=1;rounded=0;fillColor=#f8cecc;strokeColor=#b85450;" edge="1" parent="1">
          <mxGeometry width="50" height="50" relative="1" as="geometry">
            <mxPoint x="160" y="89" as="sourcePoint" />
            <mxPoint x="600" y="239" as="targetPoint" />
          </mxGeometry>
        </mxCell>
        <mxCell id="eZLIEWkoW6IjbnPwpge3-34" value="" style="endArrow=none;html=1;rounded=0;fillColor=#f8cecc;strokeColor=#b85450;" edge="1" parent="1">
          <mxGeometry width="50" height="50" relative="1" as="geometry">
            <mxPoint x="160" y="89" as="sourcePoint" />
            <mxPoint x="760" y="239" as="targetPoint" />
          </mxGeometry>
        </mxCell>
        <mxCell id="eZLIEWkoW6IjbnPwpge3-35" value="" style="endArrow=none;html=1;rounded=0;fillColor=#f8cecc;strokeColor=#b85450;" edge="1" parent="1">
          <mxGeometry width="50" height="50" relative="1" as="geometry">
            <mxPoint x="160" y="89" as="sourcePoint" />
            <mxPoint x="920" y="239" as="targetPoint" />
          </mxGeometry>
        </mxCell>
        <mxCell id="eZLIEWkoW6IjbnPwpge3-36" value="" style="endArrow=none;html=1;rounded=0;fillColor=#d5e8d4;strokeColor=#82b366;" edge="1" parent="1">
          <mxGeometry width="50" height="50" relative="1" as="geometry">
            <mxPoint x="520" y="90" as="sourcePoint" />
            <mxPoint x="440" y="240" as="targetPoint" />
          </mxGeometry>
        </mxCell>
        <mxCell id="eZLIEWkoW6IjbnPwpge3-37" value="" style="endArrow=none;html=1;rounded=0;fillColor=#d5e8d4;strokeColor=#82b366;" edge="1" parent="1">
          <mxGeometry width="50" height="50" relative="1" as="geometry">
            <mxPoint x="520" y="90" as="sourcePoint" />
            <mxPoint x="600" y="240" as="targetPoint" />
          </mxGeometry>
        </mxCell>
        <mxCell id="eZLIEWkoW6IjbnPwpge3-38" value="" style="endArrow=none;html=1;rounded=0;fillColor=#d5e8d4;strokeColor=#82b366;" edge="1" parent="1">
          <mxGeometry width="50" height="50" relative="1" as="geometry">
            <mxPoint x="520" y="90" as="sourcePoint" />
            <mxPoint x="760" y="240" as="targetPoint" />
          </mxGeometry>
        </mxCell>
        <mxCell id="eZLIEWkoW6IjbnPwpge3-39" value="" style="endArrow=none;html=1;rounded=0;fillColor=#d5e8d4;strokeColor=#82b366;" edge="1" parent="1">
          <mxGeometry width="50" height="50" relative="1" as="geometry">
            <mxPoint x="520" y="90" as="sourcePoint" />
            <mxPoint x="920" y="240" as="targetPoint" />
          </mxGeometry>
        </mxCell>
        <mxCell id="eZLIEWkoW6IjbnPwpge3-40" value="" style="endArrow=none;html=1;rounded=0;fillColor=#dae8fc;strokeColor=#6c8ebf;exitX=0.5;exitY=1;exitDx=0;exitDy=0;" edge="1" parent="1" source="eZLIEWkoW6IjbnPwpge3-9">
          <mxGeometry width="50" height="50" relative="1" as="geometry">
            <mxPoint x="890" y="120" as="sourcePoint" />
            <mxPoint x="440" y="240" as="targetPoint" />
          </mxGeometry>
        </mxCell>
        <mxCell id="eZLIEWkoW6IjbnPwpge3-41" value="" style="endArrow=none;html=1;rounded=0;fillColor=#dae8fc;strokeColor=#6c8ebf;" edge="1" parent="1">
          <mxGeometry width="50" height="50" relative="1" as="geometry">
            <mxPoint x="880" y="90" as="sourcePoint" />
            <mxPoint x="600" y="240" as="targetPoint" />
          </mxGeometry>
        </mxCell>
        <mxCell id="eZLIEWkoW6IjbnPwpge3-42" value="" style="endArrow=none;html=1;rounded=0;fillColor=#dae8fc;strokeColor=#6c8ebf;" edge="1" parent="1">
          <mxGeometry width="50" height="50" relative="1" as="geometry">
            <mxPoint x="880" y="90" as="sourcePoint" />
            <mxPoint x="760" y="240" as="targetPoint" />
          </mxGeometry>
        </mxCell>
        <mxCell id="eZLIEWkoW6IjbnPwpge3-43" value="" style="endArrow=none;html=1;rounded=0;fillColor=#dae8fc;strokeColor=#6c8ebf;exitX=0.5;exitY=1;exitDx=0;exitDy=0;" edge="1" parent="1" source="eZLIEWkoW6IjbnPwpge3-9">
          <mxGeometry width="50" height="50" relative="1" as="geometry">
            <mxPoint x="920" y="130" as="sourcePoint" />
            <mxPoint x="920" y="240" as="targetPoint" />
          </mxGeometry>
        </mxCell>
      </root>
    </mxGraphModel>
  </diagram>
</mxfile>
